<svg width="199.000000" height="23.000000" viewBox="0 0 199 23" fill="none" xmlns="http://www.w3.org/2000/svg" xmlns:xlink="http://www.w3.org/1999/xlink">
	<desc>
			Created with Pixso.
	</desc>
	<defs/>
	<path id="BRANDNAME" d="M8.22 23L-0.18 23L-0.18 -0.28L7.95 -0.28C12.82 -0.28 15.09 2.5 15.09 5.9C15.09 8.9 13.32 10.22 11.32 10.77L11.32 11C13.45 11.13 16 13.13 16 16.82C16 20.32 13.72 23 8.22 23ZM23.45 23L20.63 23L20.63 -0.28L28.49 -0.28C33.95 -0.28 36.41 2.75 36.41 6.86C36.41 9.95 35.02 12.37 32.06 13.38L37.31 23L34.04 23L29.13 13.89C28.94 13.9 28.74 13.9 28.54 13.9L23.45 13.9L23.45 23ZM44.38 16.4L42.04 23L39.09 23L47.63 -0.28L50.54 -0.28L59.09 23L56.13 23L53.79 16.4L44.38 16.4ZM78.4 -0.28L81.18 -0.28L81.18 23L78.45 23L65.77 4.72L65.54 4.72L65.54 23L62.72 23L62.72 -0.28L65.45 -0.28L78.18 18.04L78.4 18.04L78.4 -0.28ZM105.09 11.32C105.09 18.59 101.09 23 94 23L86.82 23L86.82 -0.28L94.32 -0.28C101.09 -0.28 105.09 4.09 105.09 11.32ZM125.5 -0.28L128.27 -0.28L128.27 23L125.54 23L112.86 4.72L112.63 4.72L112.63 23L109.82 23L109.82 -0.28L112.54 -0.28L125.27 18.04L125.5 18.04L125.5 -0.28ZM137.2 16.4L134.86 23L131.91 23L140.45 -0.28L143.36 -0.28L151.91 23L148.95 23L146.61 16.4L137.2 16.4ZM155.54 23L155.54 -0.28L158.9 -0.28L166.82 19.04L167.09 19.04L175 -0.28L178.36 -0.28L178.36 23L175.72 23L175.72 5.32L175.5 5.32L168.22 23L165.68 23L158.4 5.32L158.17 5.32L158.17 23L155.54 23ZM198.22 23L184 23L184 -0.28L198.04 -0.28L198.04 2.22L186.81 2.22L186.81 10.09L197.31 10.09L197.31 12.59L186.81 12.59L186.81 20.5L198.22 20.5L198.22 23ZM2.63 2.22L2.63 9.95L7.86 9.95C10.4 9.95 12.4 8.36 12.4 5.9C12.4 3.86 11.04 2.22 7.95 2.22L2.63 2.22ZM23.45 2.22L23.45 11.36L28.45 11.36C32.18 11.36 33.63 9.65 33.63 6.86C33.63 4.07 32.18 2.22 28.41 2.22L23.45 2.22ZM89.63 2.22L89.63 20.5L93.82 20.5C99.59 20.5 102.36 17 102.36 11.32C102.36 5.67 99.59 2.22 94.13 2.22L89.63 2.22ZM48.99 3.4L45.27 13.9L52.9 13.9L49.17 3.4L48.99 3.4ZM141.81 3.4L138.09 13.9L145.72 13.9L141.99 3.4L141.81 3.4ZM2.63 12.4L2.63 20.5L8.22 20.5C11.9 20.5 13.32 18.86 13.32 16.82C13.32 14.45 11.4 12.4 8.36 12.4L2.63 12.4Z" fill="#121314" fill-opacity="1.000000" fill-rule="evenodd"/>
</svg>
