<svg width="78.000000" height="64.000000" viewBox="0 0 78 64" fill="none" xmlns="http://www.w3.org/2000/svg" xmlns:xlink="http://www.w3.org/1999/xlink">
	<desc>
			Created with Pixso.
	</desc>
	<defs>
		<clipPath id="clip59_837">
			<rect id="Icon" width="24.000000" height="24.000000" transform="matrix(1 0 0 -1 27.9805 34)" fill="white" fill-opacity="0"/>
		</clipPath>
	</defs>
	<path id="Войти" d="M28.13 48.5L25.24 48.5L25.24 40.49L28.04 40.49C29.71 40.49 30.49 41.45 30.49 42.62C30.49 43.65 29.88 44.1 29.19 44.29L29.19 44.37C29.93 44.42 30.8 45.1 30.8 46.37C30.8 47.57 30.02 48.5 28.13 48.5ZM41.87 41.26C42.42 41.26 42.64 40.9 42.64 40.49L43.5 40.49C43.5 41.34 42.87 41.93 41.87 41.93C40.88 41.93 40.26 41.34 40.26 40.49L41.12 40.49C41.12 40.9 41.32 41.26 41.87 41.26ZM26.21 41.35L26.21 44.01L28.01 44.01C28.88 44.01 29.57 43.47 29.57 42.62C29.57 41.92 29.1 41.35 28.04 41.35L26.21 41.35ZM37.73 45.53C37.73 47.39 36.63 48.62 35.01 48.62C33.38 48.62 32.29 47.39 32.29 45.53C32.29 43.65 33.38 42.42 35.01 42.42C36.63 42.42 37.73 43.65 37.73 45.53ZM40.35 42.5L40.35 47.14L43.25 42.5L44.31 42.5L44.31 48.5L43.39 48.5L43.39 43.85L40.51 48.5L39.43 48.5L39.43 42.5L40.35 42.5ZM47.47 43.35L45.48 43.35L45.48 42.5L50.36 42.5L50.36 43.35L48.39 43.35L48.39 48.5L47.47 48.5L47.47 43.35ZM52.92 42.5L52.92 47.14L55.81 42.5L56.88 42.5L56.88 48.5L55.95 48.5L55.95 43.85L53.08 48.5L52 48.5L52 42.5L52.92 42.5ZM33.21 45.53C33.21 46.73 33.77 47.79 35.01 47.79C36.24 47.79 36.8 46.73 36.8 45.53C36.8 44.32 36.24 43.24 35.01 43.24C33.77 43.24 33.21 44.32 33.21 45.53ZM26.21 44.85L26.21 47.64L28.13 47.64C29.39 47.64 29.88 47.07 29.88 46.37C29.88 45.56 29.22 44.85 28.18 44.85L26.21 44.85Z" fill="#000000" fill-opacity="1.000000" fill-rule="evenodd"/>
	<g clip-path="url(#clip59_837)">
		<path id="Vector" d="M40.33 22C41.24 22 42.08 21.77 42.84 21.32C43.6 20.87 44.2 20.27 44.65 19.51C45.09 18.75 45.32 17.91 45.32 17C45.32 16.09 45.09 15.25 44.65 14.5C44.2 13.73 43.6 13.13 42.84 12.68C42.08 12.23 41.24 12.01 40.33 12.01C39.42 12.01 38.58 12.23 37.83 12.68C37.07 13.13 36.46 13.73 36.01 14.5C35.57 15.25 35.34 16.09 35.34 17C35.34 17.91 35.57 18.75 36.01 19.51C36.46 20.27 37.07 20.87 37.83 21.32C38.58 21.77 39.42 22 40.33 22ZM40.33 13C41.05 13 41.72 13.17 42.33 13.54C42.95 13.89 43.44 14.38 43.79 15C44.16 15.61 44.33 16.28 44.33 17C44.33 17.72 44.16 18.39 43.79 19.01C43.44 19.62 42.95 20.11 42.33 20.47C41.72 20.83 41.05 21.01 40.33 21.01C39.61 21.01 38.94 20.83 38.33 20.47C37.71 20.11 37.23 19.62 36.87 19.01C36.51 18.39 36.33 17.72 36.33 17C36.33 16.28 36.51 15.61 36.87 15C37.23 14.38 37.71 13.89 38.33 13.54C38.94 13.17 39.61 13 40.33 13ZM40.33 23.99C38.83 23.99 37.47 24.31 36.25 24.97C35.04 25.63 34.09 26.52 33.4 27.63C32.7 28.8 32.35 30.09 32.35 31.5L32.35 32L48.32 32L48.32 31.5C48.32 30.09 47.96 28.8 47.26 27.63C46.57 26.52 45.62 25.63 44.41 24.97C43.19 24.31 41.83 23.99 40.33 23.99ZM33.33 31C33.41 29.86 33.76 28.83 34.4 27.92C35.03 27.01 35.86 26.29 36.89 25.77C37.92 25.25 39.07 25 40.33 25C41.59 25 42.74 25.25 43.77 25.77C44.8 26.29 45.63 27.01 46.25 27.92C46.88 28.83 47.24 29.86 47.33 31L33.33 31Z" fill="#000000" fill-opacity="1.000000" fill-rule="nonzero"/>
	</g>
</svg>
