<svg width="78.000000" height="64.000000" viewBox="0 0 78 64" fill="none" xmlns="http://www.w3.org/2000/svg" xmlns:xlink="http://www.w3.org/1999/xlink">
	<desc>
			Created with Pixso.
	</desc>
	<defs>
		<clipPath id="clip59_840">
			<rect id="Menuitem" width="24.000000" height="24.000000" transform="matrix(1 0 0 -1 27.9805 34)" fill="white" fill-opacity="0"/>
		</clipPath>
	</defs>
	<g clip-path="url(#clip59_840)">
		<path id="Vector" d="M44.47 14C45.08 13.99 45.67 14.1 46.24 14.34C46.8 14.58 47.3 14.92 47.74 15.36C48.17 15.8 48.49 16.31 48.71 16.88C48.92 17.46 49.01 18.05 48.98 18.66C48.98 19.36 48.84 20.04 48.56 20.7C48.28 21.35 47.89 21.93 47.38 22.43L39.99 29.6L32.61 22.43C32.09 21.93 31.7 21.35 31.42 20.7C31.14 20.04 31 19.36 31 18.66C30.97 18.05 31.06 17.46 31.27 16.88C31.49 16.31 31.81 15.8 32.25 15.36C32.68 14.92 33.18 14.58 33.74 14.34C34.31 14.1 34.9 13.99 35.51 14C36.23 14 36.91 14.16 37.57 14.47C38.22 14.78 38.78 15.22 39.22 15.78L39.99 16.76L40.78 15.78C41.23 15.22 41.78 14.78 42.42 14.47C43.07 14.16 43.75 14 44.47 14ZM44.47 13C43.59 13 42.76 13.18 41.98 13.56C41.2 13.93 40.53 14.47 39.99 15.16C39.45 14.47 38.78 13.93 38 13.56C37.22 13.18 36.39 13 35.51 13C34.75 12.98 34.04 13.12 33.35 13.4C32.66 13.69 32.06 14.1 31.54 14.64C31.02 15.18 30.62 15.79 30.35 16.49C30.08 17.18 29.96 17.91 29.99 18.66C29.99 19.51 30.16 20.32 30.5 21.1C30.83 21.87 31.3 22.56 31.91 23.15L39.99 31L48.09 23.15C48.7 22.56 49.17 21.87 49.5 21.1C49.83 20.32 49.99 19.51 49.99 18.66C50.02 17.91 49.9 17.18 49.63 16.49C49.36 15.79 48.96 15.18 48.44 14.64C47.92 14.1 47.32 13.69 46.63 13.4C45.95 13.12 45.23 12.98 44.47 13Z" fill="#000000" fill-opacity="1.000000" fill-rule="nonzero"/>
	</g>
	<path id="Избранные" d="M29.13 39.76C29.8 39.76 30.28 39.76 30.6 39.5L31.11 40.11C30.51 40.69 29.64 40.66 28.43 40.71C27.07 40.76 26.44 41.66 26.3 43.35L26.39 43.35C26.83 42.53 27.67 42.16 28.57 42.16C30.1 42.16 31.28 43.25 31.28 45.31C31.28 47.36 30.12 48.63 28.36 48.63C26.61 48.63 25.43 47.37 25.43 44.95L25.43 44.25C25.43 41.33 26.42 39.82 28.42 39.77C28.67 39.76 28.91 39.76 29.13 39.76ZM10.31 48.5L10.31 39.77L11.35 39.77L11.35 46.64L11.44 46.64L16.21 39.77L17.23 39.77L17.23 48.5L16.17 48.5L16.17 41.64L16.09 41.64L11.33 48.5L10.31 48.5ZM21.55 48.63C20.16 48.63 19.13 47.9 19.1 46.83L20.17 46.83C20.22 47.42 20.75 47.73 21.54 47.73C22.34 47.73 23 47.42 23 46.67C23 46.02 22.49 45.58 21.69 45.58L20.56 45.58L20.56 44.68L21.69 44.68C22.49 44.68 22.86 44.27 22.86 43.72C22.86 43.14 22.43 42.75 21.67 42.75C20.9 42.75 20.34 43.13 20.31 43.67L19.25 43.67C19.29 42.62 20.26 41.87 21.62 41.87C23 41.87 23.89 42.65 23.89 43.69C23.89 44.43 23.42 44.88 22.8 45.07L22.8 45.14C23.53 45.19 24.02 45.85 24.02 46.67C24.02 47.87 22.98 48.63 21.55 48.63ZM34.12 50.95L33.11 50.95L33.11 41.95L34.08 41.95L34.08 42.99L34.2 42.99C34.42 42.65 34.82 41.87 36.09 41.87C37.75 41.87 38.89 43.18 38.89 45.24C38.89 47.32 37.75 48.63 36.11 48.63C34.85 48.63 34.42 47.85 34.2 47.49L34.12 47.49L34.12 50.95ZM44.59 47.61C44.39 48.04 43.79 48.65 42.65 48.65C41.41 48.65 40.42 47.91 40.42 46.64C40.42 45.14 41.74 44.87 42.96 44.71C44.15 44.56 44.64 44.6 44.64 44.12L44.64 44.08C44.64 43.24 44.19 42.75 43.26 42.75C42.31 42.75 41.78 43.26 41.56 43.74L40.6 43.4C41.12 42.21 42.24 41.87 43.23 41.87C44.07 41.87 45.65 42.1 45.65 44.18L45.65 48.5L44.64 48.5L44.64 47.61L44.59 47.61ZM77.02 46.98C76.71 47.97 75.74 48.63 74.41 48.63C72.52 48.63 71.36 47.29 71.36 45.27C71.36 43.26 72.54 41.87 74.31 41.87C75.67 41.87 77.12 42.7 77.12 45.14L77.12 45.56L72.37 45.56C72.42 46.97 73.23 47.73 74.41 47.73C75.2 47.73 75.79 47.39 76.05 46.71L77.02 46.98ZM47.79 41.95L48.8 41.95L48.8 44.76L51.93 44.76L51.93 41.95L52.94 41.95L52.94 48.5L51.93 48.5L51.93 45.7L48.8 45.7L48.8 48.5L47.79 48.5L47.79 41.95ZM55.08 41.95L56.09 41.95L56.09 44.76L59.22 44.76L59.22 41.95L60.23 41.95L60.23 48.5L59.22 48.5L59.22 45.7L56.09 45.7L56.09 48.5L55.08 48.5L55.08 41.95ZM63.37 41.95L63.37 44.32L65.11 44.32C66.65 44.32 67.48 45.19 67.48 46.38C67.48 47.56 66.65 48.5 65.11 48.5L62.37 48.5L62.37 41.95L63.37 41.95ZM69.53 48.5L68.52 48.5L68.52 41.95L69.53 41.95L69.53 48.5ZM35.98 42.77C34.75 42.77 34.1 43.76 34.1 45.22C34.1 46.71 34.77 47.73 35.98 47.73C37.24 47.73 37.88 46.62 37.88 45.22C37.88 43.84 37.25 42.77 35.98 42.77ZM74.31 42.77C73.16 42.77 72.44 43.68 72.37 44.7L76.1 44.7C76.1 43.58 75.4 42.77 74.31 42.77ZM26.44 45.31C26.44 46.77 27.17 47.73 28.36 47.73C29.55 47.73 30.27 46.78 30.27 45.31C30.27 43.87 29.54 43.06 28.35 43.06C27.18 43.06 26.46 43.87 26.44 45.31ZM41.42 46.69C41.42 47.39 42 47.75 42.8 47.75C44 47.75 44.64 46.95 44.64 46.12L44.64 45.21C44.47 45.41 43.33 45.53 42.91 45.58C42.12 45.68 41.42 45.92 41.42 46.69ZM65.11 45.26L63.37 45.26L63.37 47.56L65.11 47.56C65.91 47.56 66.48 47.09 66.48 46.43C66.48 45.74 65.91 45.26 65.11 45.26Z" fill="#000000" fill-opacity="1.000000" fill-rule="evenodd"/>
</svg>
