<svg width="78.000000" height="64.000000" viewBox="0 0 78 64" fill="none" xmlns="http://www.w3.org/2000/svg" xmlns:xlink="http://www.w3.org/1999/xlink">
	<desc>
			Created with Pixso.
	</desc>
	<defs>
		<clipPath id="clip59_844">
			<rect id="akar-icons:shopping-bag" width="24.000000" height="24.000000" transform="translate(27.500000 10.000000)" fill="white" fill-opacity="0"/>
		</clipPath>
	</defs>
	<rect id="akar-icons:shopping-bag" width="24.000000" height="24.000000" transform="translate(27.500000 10.000000)" fill="#FFFFFF" fill-opacity="0"/>
	<g clip-path="url(#clip59_844)">
		<path id="Vector" d="M32.11 18.53C32.48 18.18 32.96 18 33.47 18L45.52 18C46.03 18 46.51 18.18 46.88 18.53C47.25 18.87 47.48 19.33 47.52 19.83L48.32 29.83C48.34 30.11 48.31 30.39 48.22 30.65C48.13 30.91 47.99 31.15 47.8 31.35C47.61 31.55 47.38 31.72 47.13 31.83C46.88 31.94 46.6 32 46.33 32L32.66 32C32.39 32 32.11 31.94 31.86 31.83C31.61 31.72 31.38 31.55 31.19 31.35C31.01 31.15 30.86 30.91 30.77 30.65C30.68 30.39 30.65 30.11 30.67 29.83L31.47 19.83C31.51 19.33 31.74 18.87 32.11 18.53Z" stroke="#181818" stroke-opacity="1.000000" stroke-width="1.000000" stroke-linejoin="round"/>
		<path id="Vector" d="M43.5 21L43.5 16C43.5 14.93 43.07 13.92 42.32 13.17C41.57 12.42 40.56 12 39.5 12C38.43 12 37.42 12.42 36.67 13.17C35.92 13.92 35.5 14.93 35.5 16L35.5 " stroke="#181818" stroke-opacity="1.000000" stroke-width="1.000000" stroke-linejoin="round" stroke-linecap="round"/>
	</g>
	<path id="Корзина" d="M23.25 48.5L21.98 48.5L18.98 44.49L17.91 44.49L17.91 48.5L16.85 48.5L16.85 39.77L17.91 39.77L17.91 43.55L18.37 43.55L21.86 39.77L23.13 39.77L19.6 43.6L23.25 48.5ZM29.92 45.26C29.92 47.29 28.73 48.63 26.96 48.63C25.18 48.63 23.99 47.29 23.99 45.26C23.99 43.21 25.18 41.87 26.96 41.87C28.73 41.87 29.92 43.21 29.92 45.26ZM32.76 50.95L31.75 50.95L31.75 41.95L32.73 41.95L32.73 42.99L32.85 42.99C33.07 42.65 33.46 41.87 34.74 41.87C36.39 41.87 37.53 43.18 37.53 45.24C37.53 47.32 36.39 48.63 34.75 48.63C33.49 48.63 33.07 47.85 32.85 47.49L32.76 47.49L32.76 50.95ZM41.41 48.63C40.02 48.63 38.99 47.9 38.96 46.83L40.03 46.83C40.08 47.42 40.61 47.73 41.4 47.73C42.2 47.73 42.86 47.42 42.86 46.67C42.86 46.02 42.35 45.58 41.55 45.58L40.42 45.58L40.42 44.68L41.55 44.68C42.35 44.68 42.72 44.27 42.72 43.72C42.72 43.14 42.29 42.75 41.53 42.75C40.76 42.75 40.2 43.13 40.17 43.67L39.11 43.67C39.15 42.62 40.12 41.87 41.48 41.87C42.86 41.87 43.75 42.65 43.75 43.69C43.75 44.43 43.28 44.88 42.66 45.07L42.66 45.14C43.39 45.19 43.88 45.85 43.88 46.67C43.88 47.87 42.84 48.63 41.41 48.63ZM64.22 47.61C64.01 48.04 63.41 48.65 62.27 48.65C61.03 48.65 60.04 47.91 60.04 46.64C60.04 45.14 61.37 44.87 62.58 44.71C63.77 44.56 64.27 44.6 64.27 44.12L64.27 44.08C64.27 43.24 63.81 42.75 62.89 42.75C61.93 42.75 61.4 43.26 61.18 43.74L60.23 43.4C60.74 42.21 61.86 41.87 62.85 41.87C63.69 41.87 65.27 42.1 65.27 44.18L65.27 48.5L64.27 48.5L64.27 47.61L64.22 47.61ZM46.6 41.95L46.6 47.01L49.76 41.95L50.92 41.95L50.92 48.5L49.91 48.5L49.91 43.43L46.78 48.5L45.6 48.5L45.6 41.95L46.6 41.95ZM53.06 41.95L54.06 41.95L54.06 44.76L57.2 44.76L57.2 41.95L58.21 41.95L58.21 48.5L57.2 48.5L57.2 45.7L54.06 45.7L54.06 48.5L53.06 48.5L53.06 41.95ZM25 45.26C25 46.57 25.61 47.73 26.96 47.73C28.3 47.73 28.92 46.57 28.92 45.26C28.92 43.95 28.3 42.77 26.96 42.77C25.61 42.77 25 43.95 25 45.26ZM34.62 42.77C33.39 42.77 32.74 43.76 32.74 45.22C32.74 46.71 33.41 47.73 34.62 47.73C35.88 47.73 36.53 46.62 36.53 45.22C36.53 43.84 35.9 42.77 34.62 42.77ZM61.05 46.69C61.05 47.39 61.63 47.75 62.43 47.75C63.62 47.75 64.27 46.95 64.27 46.12L64.27 45.21C64.1 45.41 62.95 45.53 62.53 45.58C61.74 45.68 61.05 45.92 61.05 46.69Z" fill="#000000" fill-opacity="1.000000" fill-rule="evenodd"/>
</svg>
