<svg width="720.000000" height="82.000000" viewBox="0 0 720 82" fill="none" xmlns="http://www.w3.org/2000/svg" xmlns:xlink="http://www.w3.org/1999/xlink">
	<desc>
			Created with Pixso.
	</desc>
	<defs/>
	<rect id="div.footer-links-wrap" rx="-2.000000" width="716.000000" height="78.000000" transform="translate(2.000000 2.000000)" fill="#F2ED72" fill-opacity="1.000000"/>
	<path id="Onlineshop" d="M47.03 36.72C50.5 36.72 53.16 39.17 53.16 43.45C53.16 47.73 50.5 50.18 47.03 50.18C43.54 50.18 40.9 47.71 40.9 43.45C40.9 39.17 43.54 36.72 47.03 36.72ZM118.92 40.67L116.26 40.67C116.16 39.64 115.35 39.04 114.03 39.04C112.67 39.04 111.92 39.66 111.92 40.5C111.9 41.44 112.86 41.87 114 42.12L115.17 42.41C117.45 42.92 119.09 44.08 119.09 46.26C119.09 48.65 117.21 50.18 114.01 50.18C110.84 50.18 108.81 48.72 108.74 45.89L111.42 45.89C111.51 47.2 112.54 47.86 113.98 47.86C115.39 47.86 116.29 47.21 116.3 46.25C116.29 45.37 115.5 44.96 114.08 44.61L112.65 44.26C110.44 43.72 109.08 42.62 109.08 40.69C109.07 38.31 111.18 36.72 114.04 36.72C116.96 36.72 118.88 38.34 118.92 40.67ZM140.68 36.72C144.15 36.72 146.81 39.17 146.81 43.45C146.81 47.73 144.15 50.18 140.68 50.18C137.19 50.18 134.55 47.71 134.55 43.45C134.55 39.17 137.19 36.72 140.68 36.72ZM63.6 36.9L66.36 36.9L66.36 50L63.97 50L58.27 41.76L58.18 41.76L58.18 50L55.41 50L55.41 36.9L57.84 36.9L63.49 45.14L63.6 45.14L63.6 36.9ZM77.22 50L68.84 50L68.84 36.9L71.61 36.9L71.61 47.71L77.22 47.71L77.22 50ZM79.25 36.9L82.02 36.9L82.02 50L79.25 50L79.25 36.9ZM92.7 36.9L95.46 36.9L95.46 50L93.06 50L87.37 41.76L87.27 41.76L87.27 50L84.5 50L84.5 36.9L86.93 36.9L92.58 45.14L92.7 45.14L92.7 36.9ZM106.78 50L97.94 50L97.94 36.9L106.76 36.9L106.76 39.18L100.7 39.18L100.7 42.3L106.3 42.3L106.3 44.59L100.7 44.59L100.7 47.71L106.78 47.71L106.78 50ZM123.92 50L121.15 50L121.15 36.9L123.92 36.9L123.92 42.3L129.53 42.3L129.53 36.9L132.3 36.9L132.3 50L129.53 50L129.53 44.59L123.92 44.59L123.92 50ZM151.82 50L149.05 50L149.05 36.9L154.22 36.9C157.19 36.9 158.91 38.74 158.91 41.34C158.91 43.95 157.16 45.75 154.15 45.75L151.82 45.75L151.82 50ZM151.82 39.17L151.82 43.53L153.7 43.53C155.28 43.53 156.06 42.64 156.06 41.34C156.06 40.04 155.28 39.17 153.69 39.17L151.82 39.17ZM47.03 47.73C49.04 47.73 50.36 46.22 50.36 43.45C50.36 40.67 49.04 39.17 47.03 39.17C45.02 39.17 43.71 40.67 43.71 43.45C43.71 46.22 45.02 47.73 47.03 47.73ZM140.68 47.73C142.68 47.73 144 46.22 144 43.45C144 40.67 142.68 39.17 140.68 39.17C138.66 39.17 137.35 40.67 137.35 43.45C137.35 46.22 138.66 47.73 140.68 47.73Z" fill="#2E2E2E" fill-opacity="1.000000" fill-rule="evenodd"/>
	<path id="Onlineshop" d="M365.03 36.72C368.5 36.72 371.16 39.17 371.16 43.45C371.16 47.73 368.5 50.18 365.03 50.18C361.54 50.18 358.91 47.71 358.91 43.45C358.91 39.17 361.54 36.72 365.03 36.72ZM436.92 40.67L434.26 40.67C434.16 39.64 433.35 39.04 432.03 39.04C430.67 39.04 429.92 39.66 429.92 40.5C429.9 41.44 430.86 41.87 432 42.12L433.17 42.41C435.45 42.92 437.09 44.08 437.09 46.26C437.09 48.65 435.21 50.18 432.01 50.18C428.84 50.18 426.81 48.72 426.74 45.89L429.42 45.89C429.51 47.2 430.54 47.86 431.98 47.86C433.39 47.86 434.29 47.21 434.3 46.25C434.29 45.37 433.5 44.96 432.08 44.61L430.65 44.26C428.44 43.72 427.08 42.62 427.08 40.69C427.07 38.31 429.18 36.72 432.04 36.72C434.96 36.72 436.88 38.34 436.92 40.67ZM458.68 36.72C462.15 36.72 464.81 39.17 464.81 43.45C464.81 47.73 462.15 50.18 458.68 50.18C455.19 50.18 452.55 47.71 452.55 43.45C452.55 39.17 455.19 36.72 458.68 36.72ZM381.6 36.9L384.36 36.9L384.36 50L381.97 50L376.27 41.76L376.18 41.76L376.18 50L373.41 50L373.41 36.9L375.84 36.9L381.49 45.14L381.6 45.14L381.6 36.9ZM395.22 50L386.84 50L386.84 36.9L389.61 36.9L389.61 47.71L395.22 47.71L395.22 50ZM397.25 36.9L400.02 36.9L400.02 50L397.25 50L397.25 36.9ZM410.7 36.9L413.46 36.9L413.46 50L411.07 50L405.37 41.76L405.27 41.76L405.27 50L402.5 50L402.5 36.9L404.93 36.9L410.58 45.14L410.7 45.14L410.7 36.9ZM424.78 50L415.94 50L415.94 36.9L424.76 36.9L424.76 39.18L418.7 39.18L418.7 42.3L424.3 42.3L424.3 44.59L418.7 44.59L418.7 47.71L424.78 47.71L424.78 50ZM441.92 50L439.15 50L439.15 36.9L441.92 36.9L441.92 42.3L447.53 42.3L447.53 36.9L450.3 36.9L450.3 50L447.53 50L447.53 44.59L441.92 44.59L441.92 50ZM469.82 50L467.05 50L467.05 36.9L472.22 36.9C475.19 36.9 476.91 38.74 476.91 41.34C476.91 43.95 475.16 45.75 472.15 45.75L469.82 45.75L469.82 50ZM469.82 39.17L469.82 43.53L471.7 43.53C473.29 43.53 474.06 42.64 474.06 41.34C474.06 40.04 473.29 39.17 471.69 39.17L469.82 39.17ZM365.03 47.73C367.04 47.73 368.36 46.22 368.36 43.45C368.36 40.67 367.04 39.17 365.03 39.17C363.02 39.17 361.71 40.67 361.71 43.45C361.71 46.22 363.02 47.73 365.03 47.73ZM458.68 47.73C460.68 47.73 462 46.22 462 43.45C462 40.67 460.68 39.17 458.68 39.17C456.66 39.17 455.35 40.67 455.35 43.45C455.35 46.22 456.66 47.73 458.68 47.73Z" fill="#2E2E2E" fill-opacity="1.000000" fill-rule="evenodd"/>
	<rect id="div.footer-links-wrap" rx="-2.000000" width="716.000000" height="78.000000" transform="translate(2.000000 2.000000)" stroke="#2E2E2E" stroke-opacity="1.000000" stroke-width="4.000000"/>
</svg>
