<svg width="720.000000" height="82.000000" viewBox="0 0 720 82" fill="none" xmlns="http://www.w3.org/2000/svg" xmlns:xlink="http://www.w3.org/1999/xlink">
	<desc>
			<!-- Created with Pixso. -->
	</desc>
	<defs/>
	<rect id="div.footer-link-second-wrap" rx="-2.000000" width="716.000000" height="78.000000" transform="translate(2.000000 2.000000)" fill="#30723F" fill-opacity="1.000000"/>
	<path id="Onlineshop" d="M57.36 36.72C60.83 36.72 63.49 39.17 63.49 43.45C63.49 47.73 60.83 50.18 57.36 50.18C53.87 50.18 51.23 47.71 51.23 43.45C51.23 39.17 53.87 36.72 57.36 36.72ZM129.25 40.67L126.59 40.67C126.49 39.64 125.68 39.04 124.36 39.04C123 39.04 122.25 39.66 122.25 40.5C122.23 41.44 123.19 41.87 124.33 42.12L125.5 42.41C127.78 42.92 129.42 44.08 129.42 46.26C129.42 48.65 127.54 50.18 124.34 50.18C121.17 50.18 119.14 48.72 119.07 45.89L121.75 45.89C121.84 47.2 122.87 47.86 124.31 47.86C125.72 47.86 126.62 47.21 126.63 46.25C126.62 45.37 125.83 44.96 124.41 44.61L122.98 44.26C120.77 43.72 119.41 42.62 119.41 40.69C119.4 38.31 121.51 36.72 124.37 36.72C127.29 36.72 129.21 38.34 129.25 40.67ZM151.01 36.72C154.48 36.72 157.14 39.17 157.14 43.45C157.14 47.73 154.48 50.18 151.01 50.18C147.52 50.18 144.88 47.71 144.88 43.45C144.88 39.17 147.52 36.72 151.01 36.72ZM73.93 36.9L76.69 36.9L76.69 50L74.3 50L68.6 41.76L68.51 41.76L68.51 50L65.74 50L65.74 36.9L68.17 36.9L73.82 45.14L73.93 45.14L73.93 36.9ZM87.55 50L79.17 50L79.17 36.9L81.94 36.9L81.94 47.71L87.55 47.71L87.55 50ZM89.58 36.9L92.35 36.9L92.35 50L89.58 50L89.58 36.9ZM103.03 36.9L105.79 36.9L105.79 50L103.4 50L97.7 41.76L97.6 41.76L97.6 50L94.83 50L94.83 36.9L97.26 36.9L102.91 45.14L103.03 45.14L103.03 36.9ZM117.11 50L108.27 50L108.27 36.9L117.09 36.9L117.09 39.18L111.03 39.18L111.03 42.3L116.63 42.3L116.63 44.59L111.03 44.59L111.03 47.71L117.11 47.71L117.11 50ZM134.25 50L131.48 50L131.48 36.9L134.25 36.9L134.25 42.3L139.86 42.3L139.86 36.9L142.63 36.9L142.63 50L139.86 50L139.86 44.59L134.25 44.59L134.25 50ZM162.15 50L159.38 50L159.38 36.9L164.55 36.9C167.52 36.9 169.24 38.74 169.24 41.34C169.24 43.95 167.49 45.75 164.48 45.75L162.15 45.75L162.15 50ZM162.15 39.17L162.15 43.53L164.03 43.53C165.62 43.53 166.39 42.64 166.39 41.34C166.39 40.04 165.62 39.17 164.02 39.17L162.15 39.17ZM57.36 47.73C59.37 47.73 60.69 46.22 60.69 43.45C60.69 40.67 59.37 39.17 57.36 39.17C55.35 39.17 54.04 40.67 54.04 43.45C54.04 46.22 55.35 47.73 57.36 47.73ZM151.01 47.73C153.01 47.73 154.33 46.22 154.33 43.45C154.33 40.67 153.01 39.17 151.01 39.17C148.99 39.17 147.68 40.67 147.68 43.45C147.68 46.22 148.99 47.73 151.01 47.73Z" fill="#2E2E2E" fill-opacity="1.000000" fill-rule="evenodd"/>
	<path id="Onlineshop" d="M217.19 36.72C220.66 36.72 223.32 39.17 223.32 43.45C223.32 47.73 220.66 50.18 217.19 50.18C213.7 50.18 211.07 47.71 211.07 43.45C211.07 39.17 213.7 36.72 217.19 36.72ZM289.08 40.67L286.42 40.67C286.32 39.64 285.51 39.04 284.19 39.04C282.83 39.04 282.08 39.66 282.08 40.5C282.06 41.44 283.02 41.87 284.16 42.12L285.33 42.41C287.61 42.92 289.25 44.08 289.25 46.26C289.25 48.65 287.37 50.18 284.17 50.18C281 50.18 278.97 48.72 278.9 45.89L281.58 45.89C281.67 47.2 282.7 47.86 284.14 47.86C285.55 47.86 286.46 47.21 286.46 46.25C286.46 45.37 285.66 44.96 284.24 44.61L282.81 44.26C280.6 43.72 279.24 42.62 279.24 40.69C279.23 38.31 281.34 36.72 284.21 36.72C287.12 36.72 289.04 38.34 289.08 40.67ZM310.84 36.72C314.31 36.72 316.97 39.17 316.97 43.45C316.97 47.73 314.31 50.18 310.84 50.18C307.35 50.18 304.71 47.71 304.71 43.45C304.71 39.17 307.35 36.72 310.84 36.72ZM233.76 36.9L236.52 36.9L236.52 50L234.13 50L228.43 41.76L228.34 41.76L228.34 50L225.57 50L225.57 36.9L228 36.9L233.65 45.14L233.76 45.14L233.76 36.9ZM247.38 50L239 50L239 36.9L241.77 36.9L241.77 47.71L247.38 47.71L247.38 50ZM249.42 36.9L252.18 36.9L252.18 50L249.42 50L249.42 36.9ZM262.86 36.9L265.62 36.9L265.62 50L263.23 50L257.53 41.76L257.43 41.76L257.43 50L254.66 50L254.66 36.9L257.1 36.9L262.74 45.14L262.86 45.14L262.86 36.9ZM276.94 50L268.1 50L268.1 36.9L276.92 36.9L276.92 39.18L270.86 39.18L270.86 42.3L276.46 42.3L276.46 44.59L270.86 44.59L270.86 47.71L276.94 47.71L276.94 50ZM294.08 50L291.31 50L291.31 36.9L294.08 36.9L294.08 42.3L299.69 42.3L299.69 36.9L302.46 36.9L302.46 50L299.69 50L299.69 44.59L294.08 44.59L294.08 50ZM321.98 50L319.21 50L319.21 36.9L324.38 36.9C327.35 36.9 329.07 38.74 329.07 41.34C329.07 43.95 327.32 45.75 324.31 45.75L321.98 45.75L321.98 50ZM321.98 39.17L321.98 43.53L323.86 43.53C325.45 43.53 326.22 42.64 326.22 41.34C326.22 40.04 325.45 39.17 323.85 39.17L321.98 39.17ZM217.19 47.73C219.2 47.73 220.52 46.22 220.52 43.45C220.52 40.67 219.2 39.17 217.19 39.17C215.18 39.17 213.87 40.67 213.87 43.45C213.87 46.22 215.18 47.73 217.19 47.73ZM310.84 47.73C312.85 47.73 314.16 46.22 314.16 43.45C314.16 40.67 312.85 39.17 310.84 39.17C308.82 39.17 307.51 40.67 307.51 43.45C307.51 46.22 308.82 47.73 310.84 47.73Z" fill="#2E2E2E" fill-opacity="1.000000" fill-rule="evenodd"/>
	<path id="Onlineshop" d="M377.02 36.72C380.49 36.72 383.15 39.17 383.15 43.45C383.15 47.73 380.49 50.18 377.02 50.18C373.53 50.18 370.9 47.71 370.9 43.45C370.9 39.17 373.53 36.72 377.02 36.72ZM448.91 40.67L446.25 40.67C446.15 39.64 445.34 39.04 444.02 39.04C442.66 39.04 441.91 39.66 441.91 40.5C441.89 41.44 442.85 41.87 443.99 42.12L445.16 42.41C447.44 42.92 449.08 44.08 449.08 46.26C449.08 48.65 447.2 50.18 444 50.18C440.83 50.18 438.8 48.72 438.73 45.89L441.41 45.89C441.5 47.2 442.53 47.86 443.97 47.86C445.38 47.86 446.29 47.21 446.29 46.25C446.29 45.37 445.49 44.96 444.07 44.61L442.64 44.26C440.43 43.72 439.07 42.62 439.07 40.69C439.06 38.31 441.17 36.72 444.04 36.72C446.95 36.72 448.87 38.34 448.91 40.67ZM470.67 36.72C474.14 36.72 476.8 39.17 476.8 43.45C476.8 47.73 474.14 50.18 470.67 50.18C467.18 50.18 464.54 47.71 464.54 43.45C464.54 39.17 467.18 36.72 470.67 36.72ZM393.59 36.9L396.35 36.9L396.35 50L393.96 50L388.26 41.76L388.17 41.76L388.17 50L385.4 50L385.4 36.9L387.83 36.9L393.48 45.14L393.59 45.14L393.59 36.9ZM407.21 50L398.83 50L398.83 36.9L401.6 36.9L401.6 47.71L407.21 47.71L407.21 50ZM409.25 36.9L412.01 36.9L412.01 50L409.25 50L409.25 36.9ZM422.69 36.9L425.45 36.9L425.45 50L423.06 50L417.36 41.76L417.26 41.76L417.26 50L414.49 50L414.49 36.9L416.93 36.9L422.57 45.14L422.69 45.14L422.69 36.9ZM436.77 50L427.93 50L427.93 36.9L436.75 36.9L436.75 39.18L430.7 39.18L430.7 42.3L436.29 42.3L436.29 44.59L430.7 44.59L430.7 47.71L436.77 47.71L436.77 50ZM453.91 50L451.14 50L451.14 36.9L453.91 36.9L453.91 42.3L459.52 42.3L459.52 36.9L462.29 36.9L462.29 50L459.52 50L459.52 44.59L453.91 44.59L453.91 50ZM481.81 50L479.04 50L479.04 36.9L484.21 36.9C487.18 36.9 488.9 38.74 488.9 41.34C488.9 43.95 487.15 45.75 484.14 45.75L481.81 45.75L481.81 50ZM481.81 39.17L481.81 43.53L483.69 43.53C485.28 43.53 486.05 42.64 486.05 41.34C486.05 40.04 485.28 39.17 483.68 39.17L481.81 39.17ZM377.02 47.73C379.03 47.73 380.35 46.22 380.35 43.45C380.35 40.67 379.03 39.17 377.02 39.17C375.01 39.17 373.7 40.67 373.7 43.45C373.7 46.22 375.01 47.73 377.02 47.73ZM470.67 47.73C472.68 47.73 473.99 46.22 473.99 43.45C473.99 40.67 472.68 39.17 470.67 39.17C468.65 39.17 467.34 40.67 467.34 43.45C467.34 46.22 468.65 47.73 470.67 47.73Z" fill="#2E2E2E" fill-opacity="1.000000" fill-rule="evenodd"/>
	<rect id="div.footer-link-second-wrap" rx="-2.000000" width="716.000000" height="78.000000" transform="translate(2.000000 2.000000)" stroke="#2E2E2E" stroke-opacity="1.000000" stroke-width="4.000000"/>
</svg>
