<svg width="132.000000" height="17.000000" viewBox="0 0 132 17" fill="none" xmlns="http://www.w3.org/2000/svg" xmlns:xlink="http://www.w3.org/1999/xlink">
	<desc>
			Created with Pixso.
	</desc>
	<defs>
		<clipPath id="clip251_800">
			<rect id="copyright" width="16.000000" height="16.000000" transform="translate(116.000000 1.000000)" fill="white" fill-opacity="0"/>
		</clipPath>
	</defs>
	<path id="brandname.com" d="M2.36 14L1.23 14L1.23 3.81L2.4 3.81L2.4 7.57L2.5 7.57C2.76 7.17 3.22 6.26 4.71 6.26C6.64 6.26 7.97 7.79 7.97 10.2C7.97 12.62 6.64 14.16 4.73 14.16C3.26 14.16 2.76 13.24 2.5 12.82L2.36 12.82L2.36 14ZM36.17 12.82C35.91 13.24 35.41 14.16 33.94 14.16C32.03 14.16 30.7 12.62 30.7 10.2C30.7 7.79 32.03 6.26 33.96 6.26C35.45 6.26 35.91 7.17 36.17 7.57L36.27 7.57L36.27 3.81L37.44 3.81L37.44 14L36.31 14L36.31 12.82L36.17 12.82ZM10.93 14L9.76 14L9.76 6.36L10.89 6.36L10.89 7.51L10.97 7.51C11.25 6.76 12.05 6.24 12.96 6.24C13.14 6.24 13.44 6.25 13.58 6.26L13.58 7.45C13.5 7.43 13.17 7.37 12.86 7.37C11.75 7.37 10.93 8.13 10.93 9.16L10.93 14ZM19.48 12.96C19.24 13.46 18.55 14.17 17.22 14.17C15.77 14.17 14.61 13.32 14.61 11.83C14.61 10.08 16.16 9.76 17.57 9.58C18.97 9.4 19.54 9.45 19.54 8.89L19.54 8.84C19.54 7.87 19.01 7.29 17.93 7.29C16.81 7.29 16.2 7.89 15.94 8.45L14.83 8.05C15.43 6.66 16.74 6.26 17.89 6.26C18.87 6.26 20.72 6.54 20.72 8.96L20.72 14L19.54 14L19.54 12.96L19.48 12.96ZM25.99 7.31C24.86 7.31 24.04 8.07 24.04 9.4L24.04 14L22.86 14L22.86 6.36L24 6.36L24 7.55L24.1 7.55C24.46 6.78 25.17 6.26 26.33 6.26C27.87 6.26 28.91 7.19 28.91 9.14L28.91 14L27.74 14L27.74 9.22C27.74 8.02 27.07 7.31 25.99 7.31ZM42.87 7.31C41.75 7.31 40.92 8.07 40.92 9.4L40.92 14L39.75 14L39.75 6.36L40.88 6.36L40.88 7.55L40.98 7.55C41.34 6.78 42.05 6.26 43.21 6.26C44.75 6.26 45.79 7.19 45.79 9.14L45.79 14L44.62 14L44.62 9.22C44.62 8.02 43.96 7.31 42.87 7.31ZM52.46 12.96C52.22 13.46 51.52 14.17 50.19 14.17C48.74 14.17 47.58 13.32 47.58 11.83C47.58 10.08 49.13 9.76 50.54 9.58C51.94 9.4 52.51 9.45 52.51 8.89L52.51 8.84C52.51 7.87 51.98 7.29 50.9 7.29C49.79 7.29 49.17 7.89 48.91 8.45L47.8 8.05C48.4 6.66 49.71 6.26 50.86 6.26C51.84 6.26 53.69 6.54 53.69 8.96L53.69 14L52.51 14L52.51 12.96L52.46 12.96ZM57.01 14L55.84 14L55.84 6.36L56.97 6.36L56.97 7.55L57.07 7.55C57.39 6.74 58.12 6.26 59.12 6.26C60.12 6.26 60.79 6.74 61.16 7.55L61.25 7.55C61.64 6.76 62.44 6.26 63.53 6.26C64.89 6.26 65.86 7.09 65.86 8.89L65.86 14L64.68 14L64.68 8.89C64.68 7.76 63.97 7.31 63.13 7.31C62.06 7.31 61.44 8.04 61.44 9.02L61.44 14L60.25 14L60.25 8.77C60.25 7.89 59.63 7.31 58.74 7.31C57.82 7.31 57.01 8.1 57.01 9.22L57.01 14ZM74.25 12.22C73.89 13.38 72.76 14.16 71.21 14.16C69 14.16 67.65 12.58 67.65 10.24C67.65 7.89 69.02 6.26 71.09 6.26C72.68 6.26 74.37 7.23 74.37 10.08L74.37 10.57L68.83 10.57C68.88 12.21 69.83 13.1 71.21 13.1C72.13 13.1 72.82 12.7 73.12 11.91L74.25 12.22ZM86.12 11.77C85.92 13.12 84.81 14.16 83.12 14.16C80.97 14.16 79.66 12.5 79.66 10.22C79.66 7.89 81.03 6.26 83.1 6.26C84.71 6.26 85.92 7.21 86.12 8.65L84.95 8.65C84.77 7.95 84.15 7.31 83.12 7.31C81.75 7.31 80.83 8.45 80.83 10.18C80.83 11.95 81.73 13.1 83.12 13.1C84.03 13.1 84.73 12.6 84.95 11.77L86.12 11.77ZM94.39 10.22C94.39 12.58 93 14.16 90.94 14.16C88.87 14.16 87.47 12.58 87.47 10.22C87.47 7.83 88.87 6.26 90.94 6.26C93 6.26 94.39 7.83 94.39 10.22ZM97.36 14L96.18 14L96.18 6.36L97.32 6.36L97.32 7.55L97.42 7.55C97.74 6.74 98.47 6.26 99.47 6.26C100.47 6.26 101.14 6.74 101.51 7.55L101.6 7.55C101.99 6.76 102.79 6.26 103.88 6.26C105.24 6.26 106.21 7.09 106.21 8.89L106.21 14L105.03 14L105.03 8.89C105.03 7.76 104.32 7.31 103.48 7.31C102.41 7.31 101.79 8.04 101.79 9.02L101.79 14L100.6 14L100.6 8.77C100.6 7.89 99.98 7.31 99.09 7.31C98.17 7.31 97.36 8.1 97.36 9.22L97.36 14ZM4.57 7.31C3.14 7.31 2.38 8.47 2.38 10.18C2.38 11.91 3.16 13.1 4.57 13.1C6.04 13.1 6.8 11.81 6.8 10.18C6.8 8.57 6.06 7.31 4.57 7.31ZM31.87 10.18C31.87 11.81 32.63 13.1 34.1 13.1C35.51 13.1 36.29 11.91 36.29 10.18C36.29 8.47 35.53 7.31 34.1 7.31C32.61 7.31 31.87 8.57 31.87 10.18ZM71.09 7.31C69.75 7.31 68.9 8.37 68.83 9.56L73.18 9.56C73.18 8.27 72.36 7.31 71.09 7.31ZM88.65 10.22C88.65 11.75 89.36 13.1 90.94 13.1C92.5 13.1 93.22 11.75 93.22 10.22C93.22 8.69 92.5 7.31 90.94 7.31C89.36 7.31 88.65 8.69 88.65 10.22ZM15.79 11.89C15.79 12.7 16.46 13.12 17.4 13.12C18.79 13.12 19.54 12.19 19.54 11.23L19.54 10.16C19.34 10.4 18.01 10.54 17.52 10.59C16.6 10.71 15.79 10.99 15.79 11.89ZM48.76 11.89C48.76 12.7 49.43 13.12 50.37 13.12C51.76 13.12 52.51 12.19 52.51 11.23L52.51 10.16C52.32 10.4 50.98 10.54 50.49 10.59C49.57 10.71 48.76 10.99 48.76 11.89ZM77.91 13.18C77.91 13.67 77.51 14.07 77.01 14.07C76.52 14.07 76.12 13.67 76.12 13.18C76.12 12.69 76.52 12.29 77.01 12.29C77.51 12.29 77.91 12.69 77.91 13.18Z" fill="#121314" fill-opacity="1.000000" fill-rule="evenodd"/>
	<g clip-path="url(#clip251_800)">
		<path id="vector shape 1" d="M122.72 8.23C122.75 8.01 122.82 7.82 122.92 7.66C123.01 7.49 123.14 7.35 123.31 7.24C123.47 7.14 123.67 7.09 123.92 7.09C124.07 7.09 124.21 7.12 124.34 7.17C124.47 7.23 124.59 7.31 124.68 7.41C124.77 7.51 124.85 7.63 124.91 7.77C124.97 7.9 125 8.05 125 8.19L126.19 8.19C126.18 7.88 126.12 7.59 126.01 7.33C125.89 7.08 125.74 6.85 125.54 6.66C125.34 6.47 125.1 6.33 124.82 6.22C124.54 6.12 124.23 6.07 123.89 6.07C123.46 6.07 123.08 6.14 122.76 6.29C122.44 6.45 122.18 6.65 121.96 6.91C121.75 7.17 121.59 7.47 121.49 7.81C121.39 8.16 121.33 8.52 121.33 8.91L121.33 9.09C121.33 9.47 121.38 9.83 121.48 10.18C121.58 10.53 121.74 10.83 121.96 11.08C122.17 11.33 122.43 11.54 122.76 11.69C123.08 11.83 123.46 11.91 123.89 11.91C124.2 11.91 124.5 11.86 124.77 11.76C125.04 11.66 125.28 11.52 125.49 11.34C125.69 11.16 125.86 10.96 125.98 10.71C126.1 10.47 126.18 10.22 126.18 9.95L124.99 9.95C124.98 10.09 124.95 10.21 124.89 10.33C124.83 10.46 124.75 10.55 124.65 10.64C124.55 10.73 124.43 10.79 124.3 10.84C124.18 10.89 124.04 10.9 123.9 10.91C123.66 10.9 123.46 10.85 123.31 10.75C123.14 10.65 123.01 10.51 122.92 10.34C122.82 10.17 122.75 9.97 122.72 9.75C122.68 9.54 122.66 9.31 122.66 9.09L122.66 8.91C122.66 8.67 122.68 8.45 122.72 8.23ZM124 2.33C120.31 2.33 117.33 5.31 117.33 9C117.33 12.67 120.31 15.66 124 15.66C127.68 15.66 130.66 12.67 130.66 9C130.66 5.31 127.68 2.33 124 2.33ZM124 14.33C121.06 14.33 118.66 11.93 118.66 9C118.66 6.05 121.06 3.66 124 3.66C126.93 3.66 129.33 6.05 129.33 9C129.33 11.93 126.93 14.33 124 14.33Z" fill="#121314" fill-opacity="1.000000" fill-rule="nonzero"/>
	</g>
</svg>
