<svg width="19.000000" height="21.000000" viewBox="0 0 19 21" fill="none" xmlns="http://www.w3.org/2000/svg" xmlns:xlink="http://www.w3.org/1999/xlink">
	<desc>
			Created with Pixso.
	</desc>
	<defs/>
	<path id="Vector" d="M1.47 6.53C1.85 6.18 2.34 6 2.85 6L15.14 6C15.65 6 16.14 6.18 16.52 6.53C16.9 6.87 17.13 7.33 17.17 7.83L17.99 17.83C18.01 18.11 17.98 18.39 17.88 18.65C17.79 18.91 17.65 19.15 17.45 19.35C17.26 19.55 17.03 19.72 16.77 19.83C16.52 19.94 16.24 20 15.96 20L2.03 20C1.75 20 1.47 19.94 1.22 19.83C0.96 19.72 0.73 19.55 0.54 19.35C0.34 19.15 0.2 18.91 0.11 18.65C0.01 18.39 -0.02 18.11 0 17.83L0.82 7.83C0.86 7.33 1.09 6.87 1.47 6.53Z" stroke="#181818" stroke-opacity="1.000000" stroke-width="1.000000" stroke-linejoin="round"/>
	<path id="Vector" d="M13 9L13 4C13 2.93 12.57 1.92 11.82 1.17C11.07 0.42 10.06 0 9 0C7.93 0 6.92 0.42 6.17 1.17C5.42 1.92 5 2.93 5 4L5 " stroke="#181818" stroke-opacity="1.000000" stroke-width="1.000000" stroke-linejoin="round" stroke-linecap="round"/>
</svg>
