<svg id="SvgjsSvg1044" width="256" height="256" xmlns="http://www.w3.org/2000/svg" version="1.1" xmlns:xlink="http://www.w3.org/1999/xlink" xmlns:svgjs="http://svgjs.com/svgjs"><defs id="SvgjsDefs1045" ></defs><g id="SvgjsG1046"><svg xmlns="http://www.w3.org/2000/svg" viewBox="0 0 32 32" width="256" height="256" ><path d="M16,27.14a1,1,0,0,1-.71-.29L6.1,17.66a7.5,7.5,0,0,1,5.3-12.8A7.44,7.44,0,0,1,16,6.43a7.52,7.52,0,0,1,9.9.62h0a7.52,7.52,0,0,1,0,10.61l-9.19,9.19A1,1,0,0,1,16,27.14ZM11.4,6.86A5.46,5.46,0,0,0,7.51,8.47a5.52,5.52,0,0,0,0,7.78L16,24.73l8.49-8.48a5.52,5.52,0,0,0,0-7.78h0a5.5,5.5,0,0,0-7.78,0,1,1,0,0,1-1.42,0A5.46,5.46,0,0,0,11.4,6.86Z" fill="#000000" class="color000 svgShape"></path></svg></g></svg>