<svg width="253.000000" height="55.000000" viewBox="0 0 253 55" fill="none" xmlns="http://www.w3.org/2000/svg" xmlns:xlink="http://www.w3.org/1999/xlink">
	<desc>
			Created with Pixso.
	</desc>
	<defs/>
	<path id="Rectangle 330 (Traced)" d="M92.66 27L92.66 54.77L120.44 54.77L148.22 54.77L148.22 27L148.22 -0.78L120.44 -0.78L92.66 -0.78L92.66 27ZM134.33 27L134.33 40.88L120.44 40.88L106.55 40.88L106.55 27L106.55 13.11L120.44 13.11L134.33 13.11L134.33 27Z" fill="#5A8E65" fill-opacity="1.000000" fill-rule="evenodd"/>
	<path id="BRANDNAME (Traced)" d="M1 27.12L1 38.35L7.91 38.35L14.82 38.35L15.56 38.24L16.29 38.13L17.04 37.88L17.78 37.64L18.38 37.29L18.98 36.93L19.53 36.41L20.07 35.9L20.37 35.48L20.66 35.07L20.94 34.51L21.21 33.96L21.39 33.4L21.57 32.84L21.69 32.23L21.81 31.61L21.81 30.34L21.81 29.06L21.68 28.37L21.56 27.68L21.39 27.09L21.22 26.5L20.92 25.86L20.61 25.21L20.3 24.78L20 24.35L19.47 23.86L18.95 23.37L18.3 23.05L17.66 22.73L17.05 22.61L16.45 22.49L16.73 22.41L17.01 22.32L17.41 22.02L17.81 21.72L18.03 21.42L18.24 21.12L18.39 20.83L18.53 20.54L18.59 20.15L18.66 19.76L18.6 19.21L18.54 18.66L18.43 18.32L18.32 17.98L18.05 17.57L17.79 17.16L17.42 16.88L17.05 16.6L16.64 16.42L16.24 16.24L15.68 16.09L15.12 15.94L8.06 15.92L1 15.9L1 27.12ZM26 27.12L26 38.35L27.62 38.35L29.24 38.35L29.24 30.82L29.24 23.29L32.63 23.31L36.03 23.33L40.34 30.84L44.66 38.35L46.52 38.35L48.38 38.35L48.35 38.25L48.31 38.16L44.02 30.75L39.74 23.35L39.74 23.32L39.74 23.29L41.24 23.29L42.74 23.29L43.4 23.19L44.05 23.09L44.5 22.95L44.95 22.81L45.37 22.57L45.78 22.32L46.05 22.03L46.32 21.74L46.51 21.32L46.71 20.91L46.78 20.54L46.85 20.17L46.85 19.74L46.85 19.32L46.75 18.86L46.65 18.41L46.48 18.07L46.31 17.73L46.09 17.46L45.88 17.19L45.52 16.91L45.16 16.64L44.73 16.44L44.29 16.25L43.72 16.09L43.16 15.94L34.58 15.92L26 15.9L26 27.12ZM58.17 26.96L51.79 38.02L51.7 38.19L51.61 38.35L52.19 38.35L52.77 38.35L55.28 34.03L57.79 29.72L63.46 29.72L69.14 29.72L71.63 34.01L74.11 38.31L75.99 38.33L77.87 38.35L77.85 38.29L77.82 38.22L71.37 27.06L64.91 15.9L64.74 15.9L64.56 15.9L58.17 26.96ZM81.38 27.13L81.38 38.35L81.9 38.35L82.42 38.35L82.42 27.61L82.42 16.87L82.86 16.87L83.31 16.87L92.33 27.61L101.36 38.35L102.66 38.35L103.96 38.35L103.96 27.13L103.96 15.9L103.45 15.9L102.93 15.9L102.93 25.4L102.93 34.89L102.8 34.89L102.67 34.89L94.71 25.4L86.75 15.9L84.07 15.9L81.38 15.9L81.38 27.13ZM110.04 27.12L110.04 38.35L115.45 38.35L120.85 38.35L121.73 38.25L122.6 38.14L123.28 38L123.96 37.85L124.68 37.65L125.41 37.44L126.15 37.13L126.89 36.83L127.25 36.65L127.62 36.46L128.14 36.15L128.65 35.84L129.16 35.47L129.67 35.09L130.22 34.56L130.78 34.03L131.22 33.46L131.67 32.89L132 32.32L132.32 31.75L132.57 31.17L132.82 30.58L132.99 29.92L133.16 29.27L133.25 28.59L133.33 27.91L133.29 26.72L133.25 25.54L133.11 24.87L132.97 24.2L132.75 23.59L132.54 22.98L132.26 22.43L131.98 21.88L131.56 21.26L131.14 20.63L130.38 19.87L129.62 19.11L128.96 18.65L128.31 18.18L127.2 17.63L126.1 17.08L125.37 16.83L124.65 16.58L123.82 16.39L122.99 16.19L122.27 16.07L121.54 15.95L115.79 15.92L110.04 15.9L110.04 27.12ZM136.77 27.13L136.77 38.35L137.28 38.35L137.8 38.35L137.8 27.61L137.8 16.86L138.27 16.88L138.73 16.9L147.72 27.61L156.72 38.31L158.03 38.33L159.35 38.35L159.35 27.13L159.35 15.9L158.87 15.9L158.38 15.9L158.38 25.4L158.38 34.89L158.22 34.89L158.06 34.89L150.1 25.4L142.14 15.9L139.45 15.9L136.77 15.9L136.77 27.13ZM175.12 15.99L175.05 16.08L168.68 27.11L162.31 38.15L162.27 38.25L162.23 38.35L162.81 38.33L163.38 38.31L165.87 34.02L168.36 29.72L174.06 29.73L179.75 29.75L182.23 34.05L184.72 38.35L186.6 38.35L188.49 38.35L187.98 37.47L187.46 36.59L181.49 26.26L175.52 15.94L175.35 15.92L175.19 15.9L175.12 15.99ZM201.11 16.26L200.94 16.63L195.89 27.45L190.84 38.28L190.84 38.31L190.84 38.35L191.41 38.35L191.98 38.34L195.91 29.89L199.84 21.43L200.12 21.43L200.41 21.43L203.89 28.96L207.37 36.49L207.42 36.43L207.47 36.38L210.95 28.9L214.42 21.42L214.69 21.44L214.97 21.46L218.88 29.89L222.8 38.31L224.58 38.33L226.35 38.35L226.33 38.29L226.3 38.23L221.09 27.07L215.88 15.91L215.83 15.96L215.79 16.01L212.39 23.33L208.98 30.65L208.8 31.05L208.62 31.45L205.01 23.73L201.39 16.01L201.34 15.94L201.28 15.88L201.11 16.26ZM230.14 27.13L230.14 38.35L240.31 38.35L250.47 38.35L250.74 37.86L251 37.38L242.19 37.38L233.38 37.38L233.38 30.34L233.38 23.29L239.42 23.29L245.46 23.29L245.7 22.85L245.95 22.41L245.95 22.37L245.95 22.33L239.67 22.33L233.38 22.33L233.38 19.6L233.38 16.87L241.28 16.87L249.19 16.87L249.43 16.43L249.68 15.98L249.68 15.94L249.68 15.9L239.91 15.9L230.14 15.9L230.14 27.13ZM122.16 16.93L122.85 17.08L123.47 17.3L124.1 17.51L124.65 17.79L125.2 18.06L125.72 18.41L126.23 18.76L126.85 19.35L127.46 19.94L127.89 20.52L128.33 21.1L128.67 21.76L129.02 22.43L129.26 23.09L129.5 23.74L129.68 24.54L129.86 25.33L129.94 26.12L130.02 26.92L129.97 27.71L129.93 28.51L129.8 29.31L129.66 30.11L129.44 30.79L129.22 31.48L128.95 32.06L128.68 32.64L128.22 33.34L127.76 34.03L127.14 34.65L126.51 35.28L125.87 35.7L125.24 36.13L124.67 36.4L124.09 36.67L123.44 36.88L122.78 37.09L122.26 37.2L121.74 37.31L121.12 37.38L120.5 37.45L116.9 37.45L113.29 37.45L113.29 27.09L113.29 16.72L117.38 16.75L121.47 16.78L122.16 16.93ZM14.27 17.06L14.67 17.22L14.87 17.47L15.08 17.73L15.2 18.04L15.31 18.35L15.34 19.6L15.37 20.85L15.29 21.26L15.21 21.66L14.99 21.88L14.77 22.1L14.49 22.19L14.22 22.28L9.23 22.31L4.24 22.33L4.24 19.6L4.24 16.86L9.06 16.88L13.87 16.91L14.27 17.06ZM41.67 16.94L42.19 17.01L42.5 17.17L42.81 17.33L43.02 17.73L43.22 18.14L43.25 19.42L43.28 20.7L43.19 21.17L43.11 21.64L42.94 21.84L42.77 22.04L42.45 22.16L42.12 22.29L35.68 22.31L29.24 22.33L29.24 19.6L29.24 16.87L35.2 16.87L41.15 16.87L41.67 16.94ZM66.16 24.54L68.54 28.64L63.48 28.66L58.43 28.68L58.4 28.65L58.37 28.62L60.6 24.77L62.82 20.91L62.99 20.65L63.16 20.38L63.47 20.41L63.79 20.43L66.16 24.54ZM174.5 20.65L174.67 20.91L176.89 24.77L179.11 28.62L179.08 28.65L179.05 28.68L174 28.66L168.95 28.64L171.06 24.98L173.17 21.32L173.45 20.86L173.72 20.39L174.03 20.39L174.33 20.39L174.5 20.65ZM14.46 23.36L15.05 23.43L15.46 23.53L15.88 23.64L16.37 23.88L16.86 24.12L17.25 24.51L17.64 24.9L17.92 25.47L18.19 26.03L18.33 26.65L18.46 27.26L18.53 28.15L18.61 29.04L18.61 30.29L18.61 31.55L18.53 32.47L18.46 33.4L18.33 34.02L18.19 34.65L17.92 35.21L17.65 35.77L17.28 36.15L16.91 36.52L16.5 36.74L16.08 36.95L15.6 37.1L15.12 37.24L14.5 37.31L13.87 37.38L9.06 37.38L4.24 37.38L4.24 30.34L4.24 23.29L9.06 23.29L13.87 23.29L14.46 23.36Z" fill="#000000" fill-opacity="1.000000" fill-rule="evenodd"/>
	<path id="BRANDNAME (Traced)" d="M200.04 16.21L200.03 16.22L194.99 27.03L189.84 38.05L189.84 38.69L188.84 36.96L188.33 36.08L182.36 25.76L176.14 15.01L175.48 14.92L174.75 14.83L174.33 15.37L174.22 15.51L174.18 15.58L167.81 26.61L161.41 37.71L161.34 37.89L160.76 39.41L162.84 39.33L163.96 39.29L166.73 34.52L168.94 30.72L174.05 30.73L179.17 30.75L181.37 34.55L184.14 39.35L189.84 39.35L189.84 39.35L191.41 39.35L192.62 39.34L196.82 30.31L200.12 23.19L202.98 29.38L207.09 38.26L208.15 37.12L208.31 36.95L211.85 29.32L214.68 23.23L217.98 30.31L222.16 39.31L224.56 39.33L227.81 39.37L227.26 37.93L227.23 37.84L222 26.64L216.15 14.13L215.09 15.28L214.95 15.45L211.48 22.91L208.61 29.08L205.91 23.3L202.23 15.44L202.06 15.26L200.98 14.1L200.2 15.85L200.04 16.21ZM209.16 30.26L208.98 30.65L208.8 31.05L208.62 31.45L208.06 30.26L205.01 23.73L201.87 17.02L201.39 16.01L201.34 15.94L201.28 15.88L201.18 16.11L201.11 16.26L201.1 16.29L200.94 16.63L200.76 17.02L195.89 27.45L191.28 37.35L190.84 38.28L190.84 38.35L190.84 38.35L190.99 38.35L191.84 38.34L191.91 38.34L191.98 38.34L195.91 29.89L199.57 22L199.68 21.77L199.84 21.43L200.12 21.43L200.41 21.43L200.56 21.76L200.67 22.01L203.89 28.96L206.85 35.35L207.21 36.13L207.28 36.29L207.37 36.49L207.42 36.43L207.47 36.38L207.95 35.35L210.95 28.9L214.13 22.04L214.25 21.8L214.42 21.42L214.69 21.44L214.97 21.46L215.09 21.73L215.23 22.04L218.88 29.89L222.8 38.31L224.58 38.33L225.25 38.34L225.99 38.35L226.05 38.35L226.35 38.35L226.33 38.29L226.3 38.23L225.89 37.35L221.09 27.07L216.41 17.05L216.02 16.22L215.96 16.09L215.88 15.91L215.88 15.91L215.83 15.96L215.79 16.01L215.3 17.05L212.39 23.33L209.16 30.26ZM179.75 29.75L182.23 34.05L184.72 38.35L188.49 38.35L187.98 37.47L187.91 37.35L187.46 36.59L181.49 26.26L175.9 16.6L175.9 16.6L175.88 16.56L175.76 16.35L175.52 15.94L175.35 15.92L175.19 15.9L175.12 15.99L175.05 16.08L175.05 16.08L174.93 16.28L174.75 16.6L172.39 20.68L170.92 23.23L168.68 27.11L162.78 37.33L162.31 38.15L162.27 38.25L162.23 38.35L162.65 38.34L162.8 38.33L162.81 38.33L163.37 38.31L163.38 38.31L165.87 34.02L168.36 29.72L174.06 29.73L179.75 29.75ZM179.01 28.68L179.05 28.68L179.08 28.65L179.11 28.62L179.06 28.52L178.57 27.68L176.89 24.77L174.67 20.91L174.5 20.65L174.33 20.39L173.72 20.39L173.45 20.86L173.26 21.18L173.17 21.32L171.76 23.77L171.06 24.98L169.53 27.65L168.95 28.64L170.1 28.65L174 28.66L177.99 28.68L179.01 28.68ZM177.41 27.67L176.02 25.27L174.04 21.82L174.04 21.82L171.93 25.48L170.68 27.65L174.01 27.66L177.41 27.67ZM109.04 27.12L109.04 39.35L120.91 39.35L121.84 39.24L122.77 39.13L123.49 38.98L124.2 38.82L124.96 38.61L125.73 38.38L126.53 38.06L127.3 37.74L127.7 37.54L128.1 37.34L128.65 37.01L129.21 36.67L129.75 36.27L130.31 35.86L130.91 35.29L131.52 34.7L132.01 34.08L132.5 33.45L132.86 32.82L133.22 32.2L133.49 31.56L133.77 30.9L133.96 30.17L134.15 29.45L134.24 28.71L134.34 27.95L134.29 26.69L134.25 25.41L134.09 24.66L133.93 23.93L133.7 23.26L133.46 22.59L133.16 21.98L132.85 21.37L132.39 20.69L131.92 19.99L131.09 19.17L130.27 18.35L129.54 17.83L128.82 17.32L127.65 16.74L126.48 16.16L125.7 15.89L124.93 15.62L124.05 15.41L123.19 15.21L122.43 15.08L121.63 14.95L115.8 14.92L109.04 14.89L109.04 27.12ZM0 27.12L0 39.35L14.9 39.35L15.7 39.23L16.52 39.11L17.35 38.83L18.2 38.55L18.89 38.15L19.59 37.74L20.22 37.14L20.83 36.55L21.18 36.06L21.52 35.58L21.83 34.96L22.14 34.34L22.34 33.7L22.54 33.09L22.67 32.42L22.81 31.71L22.81 30.34L22.81 28.97L22.67 28.19L22.54 27.45L22.35 26.81L22.16 26.15L21.82 25.43L21.48 24.7L21.12 24.2L20.75 23.69L20.16 23.13L19.53 22.54L18.75 22.16L18.73 22.15L18.84 22L19.1 21.64L19.28 21.28L19.5 20.85L19.58 20.31L19.66 19.78L19.6 19.11L19.53 18.45L19.38 18.01L19.23 17.55L18.89 17.03L18.53 16.47L18.02 16.08L17.56 15.73L17.05 15.51L16.57 15.3L15.94 15.13L15.25 14.94L8.06 14.92L0 14.89L0 27.12ZM17.94 22.87L17.66 22.73L17.05 22.61L16.45 22.49L16.73 22.41L17.01 22.32L17.79 21.74L17.81 21.72L18.03 21.42L18.24 21.12L18.39 20.83L18.53 20.54L18.59 20.15L18.66 19.76L18.6 19.21L18.54 18.66L18.43 18.32L18.32 17.98L18.05 17.57L17.79 17.16L17.42 16.88L17.05 16.6L16.64 16.42L16.24 16.24L15.68 16.09L15.12 15.94L14.15 15.94L8.06 15.92L3.24 15.9L1 15.9L1 38.35L2 38.35L3.24 38.35L14.82 38.35L15.56 38.24L16.29 38.13L17.04 37.88L17.78 37.64L18.38 37.29L18.98 36.93L19.53 36.41L20.07 35.9L20.37 35.48L20.66 35.07L20.94 34.51L21.21 33.96L21.39 33.4L21.57 32.84L21.69 32.23L21.81 31.61L21.81 30.34L21.81 29.06L21.68 28.37L21.56 27.68L21.39 27.09L21.22 26.5L20.92 25.86L20.61 25.21L20.3 24.78L20 24.35L19.47 23.86L18.95 23.37L18.3 23.05L17.94 22.87ZM13.96 16.94L13.87 16.91L9.06 16.88L5.24 16.87L4.24 16.86L4.24 22.33L4.24 22.33L5.24 22.33L9.23 22.31L12.22 22.29L14.22 22.28L14.49 22.19L14.77 22.1L14.99 21.88L15.21 21.66L15.29 21.26L15.37 20.85L15.34 19.6L15.31 18.35L15.2 18.04L15.08 17.73L14.87 17.47L14.67 17.22L14.27 17.06L13.96 16.94ZM14.06 18.06L13.9 17.99L13.68 17.9L9.05 17.88L5.24 17.87L5.24 21.33L9.23 21.31L14.06 21.28L14.18 21.24L14.23 21.23L14.28 21.18L14.29 21.17L14.31 21.06L14.37 20.76L14.34 19.63L14.31 18.54L14.26 18.38L14.2 18.23L14.1 18.11L14.06 18.06ZM12.23 23.29L9.06 23.29L5.24 23.29L4.24 23.29L4.24 23.29L4.24 23.33L4.24 24.29L4.24 37.38L4.26 37.38L5.24 37.38L9.06 37.38L13.87 37.38L14.16 37.35L14.5 37.31L15.12 37.24L15.6 37.1L16.08 36.95L16.5 36.74L16.91 36.52L17.28 36.15L17.65 35.77L17.92 35.21L18.19 34.65L18.33 34.02L18.46 33.4L18.53 32.47L18.61 31.55L18.61 30.29L18.61 29.04L18.53 28.15L18.46 27.26L18.33 26.65L18.19 26.03L17.92 25.47L17.64 24.9L17.25 24.51L16.86 24.12L16.37 23.88L15.88 23.64L15.46 23.53L15.05 23.43L14.46 23.36L13.87 23.29L12.23 23.29ZM13.82 24.29L9.06 24.29L5.24 24.29L5.24 36.38L9.06 36.38L13.82 36.38L14.39 36.32L14.92 36.26L15.32 36.14L15.71 36.02L16.03 35.85L16.31 35.7L16.58 35.44L16.83 35.19L17.02 34.78L17.24 34.33L17.35 33.81L17.47 33.25L17.54 32.39L17.61 31.51L17.61 30.29L17.61 29.08L17.54 28.23L17.47 27.41L17.35 26.86L17.24 26.36L17.02 25.9L16.82 25.49L16.55 25.22L16.28 24.95L15.93 24.78L15.53 24.58L15.22 24.5L14.87 24.41L14.35 24.35L13.82 24.29ZM25 27.12L25 39.35L30.24 39.35L30.24 24.3L32.63 24.31L35.45 24.32L39.47 31.34L44.08 39.35L49.84 39.35L49.28 37.89L49.22 37.72L44.89 30.25L41.44 24.29L42.82 24.29L43.55 24.18L44.28 24.07L44.8 23.91L45.36 23.73L45.87 23.43L46.42 23.11L46.79 22.71L47.16 22.3L47.42 21.75L47.67 21.22L47.76 20.72L47.85 20.26L47.85 19.74L47.85 19.22L47.73 18.66L47.61 18.07L47.37 17.62L47.16 17.19L46.88 16.84L46.58 16.46L46.12 16.12L45.68 15.78L45.14 15.53L44.63 15.3L43.98 15.13L43.29 14.94L34.58 14.92L25 14.9L25 27.12ZM40.29 24.29L39.74 23.35L39.74 23.29L39.74 23.29L39.83 23.29L40.86 23.29L40.91 23.29L41.24 23.29L42.74 23.29L43.4 23.19L44.05 23.09L44.5 22.95L44.95 22.81L45.37 22.57L45.78 22.32L46.05 22.03L46.32 21.74L46.51 21.32L46.71 20.91L46.78 20.54L46.85 20.17L46.85 19.74L46.85 19.32L46.75 18.86L46.65 18.41L46.48 18.07L46.31 17.73L46.09 17.46L45.88 17.19L45.52 16.91L45.16 16.64L44.73 16.44L44.29 16.25L43.72 16.09L43.16 15.94L41.71 15.94L34.58 15.92L28.24 15.9L27 15.9L26 15.9L26 38.35L27 38.35L28.24 38.35L29.24 38.35L29.24 23.29L30.24 23.3L32.63 23.31L33.91 23.32L36.03 23.33L40.34 30.84L44.66 38.35L48.38 38.35L48.35 38.25L48.31 38.16L47.84 37.35L44.02 30.75L40.29 24.29ZM38.74 22.3L40.91 22.29L42.12 22.29L42.45 22.16L42.77 22.04L42.94 21.84L43.11 21.64L43.19 21.17L43.28 20.7L43.25 19.42L43.22 18.14L43.02 17.73L42.81 17.33L42.5 17.17L42.19 17.01L41.67 16.94L41.65 16.94L41.15 16.87L35.2 16.87L30.24 16.87L29.24 16.87L29.24 16.91L29.24 17.87L29.24 22.33L30.24 22.33L33.91 22.32L35.68 22.31L38.74 22.3ZM30.24 21.33L35.68 21.31L41.93 21.29L42.09 21.23L42.17 21.2L42.21 21L42.27 20.62L42.25 19.44L42.23 18.39L42.13 18.19L42.07 18.07L42.04 18.06L41.89 17.98L41.54 17.93L41.09 17.87L35.2 17.87L30.24 17.87L30.24 21.33ZM57.31 26.46L50.92 37.53L50.91 37.54L50.82 37.71L49.93 39.35L53.35 39.35L56.14 34.53L58.36 30.72L68.57 30.72L70.76 34.51L73.53 39.31L75.98 39.33L79.3 39.36L78.79 37.94L78.73 37.8L72.23 26.56L65.49 14.9L64.74 14.9L63.98 14.9L57.31 26.46ZM69.14 29.72L71.63 34.01L74.11 38.31L75.99 38.33L76.74 38.34L77.48 38.35L77.61 38.35L77.87 38.35L77.85 38.29L77.82 38.22L77.32 37.34L71.37 27.06L65.31 16.6L65.08 16.21L64.91 15.9L64.74 15.9L64.56 15.9L64.39 16.21L64.16 16.6L62.03 20.29L59.28 25.06L58.17 26.96L52.18 37.35L51.79 38.02L51.7 38.19L51.61 38.35L52.77 38.35L55.28 34.03L57.79 29.72L69.14 29.72ZM67.96 27.65L68.54 28.64L67.38 28.65L63.48 28.66L59.5 28.68L58.47 28.68L58.43 28.68L58.4 28.65L58.37 28.62L58.43 28.53L58.92 27.68L60.14 25.56L60.6 24.77L62.82 20.91L62.88 20.81L62.99 20.65L63.16 20.38L63.47 20.41L63.79 20.43L66.16 24.54L67.96 27.65ZM66.81 27.65L65.3 25.04L63.45 21.82L61.46 25.27L60.08 27.67L63.48 27.66L66.81 27.65ZM80.38 27.13L80.38 39.35L83.42 39.35L83.42 18.55L91.57 28.25L100.89 39.35L104.96 39.35L104.96 14.9L101.93 14.9L101.93 32.46L95.48 24.76L87.22 14.9L80.38 14.9L80.38 27.13ZM102.93 33.65L102.93 34.89L102.67 34.89L101.93 34.01L94.71 25.4L86.75 15.9L82.38 15.9L81.42 15.9L81.38 15.9L81.38 38.35L82.38 38.35L82.42 38.35L82.42 16.87L83.31 16.87L83.34 16.9L83.42 17L101.36 38.35L103.96 38.35L103.96 15.9L103.93 15.9L102.96 15.9L102.93 15.9L102.93 33.65ZM135.77 27.13L135.77 39.35L138.8 39.35L138.8 18.55L146.96 28.25L156.24 39.31L158.02 39.33L160.35 39.36L160.35 14.9L157.38 14.9L157.38 32.54L150.86 24.76L142.61 14.9L135.77 14.9L135.77 27.13ZM158.06 34.89L157.38 34.09L150.1 25.4L142.14 15.9L136.77 15.9L136.77 38.35L136.8 38.35L137.77 38.35L137.8 38.35L137.8 16.86L137.8 16.86L138.27 16.88L138.7 16.9L138.73 16.9L156.72 38.31L158.03 38.33L158.35 38.34L159.35 38.35L159.35 15.9L158.38 15.9L158.38 34.89L158.35 34.89L158.06 34.89ZM229.14 27.13L229.14 39.35L230.14 39.35L240.31 39.35L251.07 39.35L251.62 38.34L252.67 36.38L234.38 36.38L234.38 24.29L246.04 24.29L246.58 23.34L246.95 22.67L246.95 21.33L234.38 21.33L234.38 17.87L249.77 17.87L250.31 16.92L250.68 16.25L250.68 14.9L229.14 14.9L229.14 27.13ZM249.68 15.98L249.68 15.9L249.54 15.9L231.14 15.9L230.14 15.9L230.14 38.35L231.14 38.35L232.38 38.35L240.31 38.35L250.47 38.35L250.74 37.86L251 37.38L233.38 37.38L233.38 23.29L234.38 23.29L245.46 23.29L245.7 22.85L245.95 22.41L245.95 22.33L245.81 22.33L233.38 22.33L233.38 16.87L234.38 16.87L249.19 16.87L249.43 16.43L249.68 15.98ZM112.29 15.91L111.04 15.9L110.04 15.9L110.04 38.35L111.04 38.35L112.29 38.35L120.85 38.35L121.73 38.25L122.6 38.14L123.14 38.03L123.28 38L123.96 37.85L124.68 37.65L125.41 37.44L126.15 37.13L126.89 36.83L127.25 36.65L127.62 36.46L128.65 35.84L129.16 35.47L129.67 35.09L130.22 34.56L130.78 34.03L131.22 33.46L131.67 32.89L132 32.32L132.32 31.75L132.57 31.17L132.82 30.58L132.99 29.92L133.16 29.27L133.25 28.59L133.33 27.91L133.29 26.72L133.25 25.54L133.11 24.87L132.97 24.2L132.75 23.59L132.54 22.98L131.98 21.88L131.56 21.26L131.14 20.63L129.62 19.11L128.96 18.65L128.31 18.18L127.2 17.63L126.1 17.08L125.37 16.83L124.65 16.58L124.1 16.45L123.82 16.39L122.99 16.19L122.27 16.07L121.54 15.95L115.79 15.92L112.29 15.91ZM121.54 16.79L121.47 16.78L121.4 16.78L117.38 16.75L114.29 16.73L113.29 16.72L113.29 37.45L113.3 37.45L114.29 37.45L116.9 37.45L120.5 37.45L120.74 37.42L120.85 37.41L121.12 37.38L121.74 37.31L122.26 37.2L122.4 37.17L122.49 37.15L122.78 37.09L122.88 37.06L123.44 36.88L124.09 36.67L124.67 36.4L125.24 36.13L125.87 35.7L126.51 35.28L127.14 34.65L127.76 34.03L128.22 33.34L128.68 32.64L128.95 32.06L129.22 31.48L129.44 30.79L129.66 30.11L129.8 29.31L129.93 28.51L129.97 27.71L130.02 26.92L129.94 26.12L129.86 25.33L129.68 24.54L129.5 23.74L129.26 23.09L129.02 22.43L128.67 21.76L128.33 21.1L127.89 20.52L127.46 19.94L126.85 19.35L126.23 18.76L125.72 18.41L125.2 18.06L124.65 17.79L124.1 17.51L123.82 17.41L123.47 17.3L122.85 17.08L122.84 17.08L122.78 17.07L122.16 16.93L121.54 16.79ZM121.36 17.78L121.94 17.91L122.58 18.05L123.15 18.24L123.71 18.43L124.2 18.68L124.69 18.93L125.16 19.24L125.6 19.54L126.15 20.07L126.71 20.61L127.09 21.12L127.48 21.63L127.79 22.22L128.1 22.83L128.32 23.43L128.54 24.02L128.7 24.75L128.87 25.49L128.94 26.22L129.01 26.94L128.98 27.66L128.94 28.4L128.81 29.14L128.69 29.87L128.49 30.49L128.29 31.11L128.05 31.64L127.81 32.15L127.39 32.78L126.98 33.39L126.43 33.95L125.87 34.5L125.32 34.87L124.74 35.26L124.24 35.5L123.73 35.74L123.13 35.93L122.53 36.12L122.06 36.22L121.58 36.32L121.01 36.38L120.45 36.45L116.9 36.45L114.29 36.45L114.29 17.73L117.37 17.75L121.36 17.78Z" fill="#FFFFFF" fill-opacity="1.000000" fill-rule="evenodd"/>
</svg>
