<svg id="SvgjsSvg1049" width="256" height="256" xmlns="http://www.w3.org/2000/svg" version="1.1" xmlns:xlink="http://www.w3.org/1999/xlink" xmlns:svgjs="http://svgjs.com/svgjs"><defs id="SvgjsDefs1050"></defs><g id="SvgjsG1051"><svg xmlns="http://www.w3.org/2000/svg" fill-rule="evenodd" stroke-linejoin="round" stroke-miterlimit="2" clip-rule="evenodd" viewBox="0 0 100 100" width="256" height="256"><path d="M50.012 6.25c-12.601 0-22.831 10.23-22.831 22.83 0 12.601 10.23 22.831 22.831 22.831 12.6 0 22.83-10.23 22.83-22.831 0-12.6-10.23-22.83-22.83-22.83Zm0 6.25c9.151 0 16.58 7.429 16.58 16.58 0 9.151-7.429 16.581-16.58 16.581-9.151 0-16.581-7.43-16.581-16.581s7.43-16.58 16.581-16.58Z" fill="#000000" class="color000 svgShape"></path><path d="M15.311 94.548c15.553 0 53.865 0 69.417-.08a9.288 9.288 0 0 0 7.083-3.294 9.3 9.3 0 0 0 2.067-7.549l-.005-.026c-3.703-20.86-21.944-36.724-43.861-36.724-21.912 0-40.151 15.857-43.94 36.698l-.006.039a9.373 9.373 0 0 0 9.246 10.936h-.001Zm0-6.25h-.001a3.127 3.127 0 0 1-3.086-3.619c3.269-17.925 18.949-31.554 37.788-31.554 18.836 0 34.515 13.626 37.705 31.551a3.043 3.043 0 0 1-3.005 3.542h-.016c-15.545.08-53.839.08-69.385.08Z" fill="#000000" class="color000 svgShape"></path></svg></g></svg>