<svg width="20.000000" height="18.000000" viewBox="0 0 20 18" fill="none" xmlns="http://www.w3.org/2000/svg" xmlns:xlink="http://www.w3.org/1999/xlink">
	<desc>
			Created with Pixso.
	</desc>
	<defs/>
	<path id="Vector" d="M14.48 1C15.08 0.99 15.67 1.1 16.24 1.34C16.81 1.58 17.31 1.92 17.74 2.36C18.17 2.8 18.49 3.31 18.71 3.88C18.92 4.46 19.01 5.05 18.98 5.66C18.98 6.36 18.84 7.04 18.56 7.7C18.28 8.36 17.89 8.93 17.38 9.43L10 16.6L2.61 9.43C2.1 8.93 1.71 8.36 1.43 7.7C1.15 7.04 1.01 6.36 1.01 5.66C0.98 5.05 1.07 4.46 1.28 3.88C1.5 3.31 1.82 2.8 2.25 2.36C2.68 1.92 3.18 1.58 3.75 1.34C4.32 1.1 4.91 0.99 5.51 1C6.23 1 6.92 1.16 7.58 1.47C8.23 1.78 8.78 2.22 9.23 2.78L10 3.76L10.79 2.78C11.23 2.22 11.78 1.78 12.43 1.47C13.08 1.16 13.76 1 14.48 1ZM14.48 0C13.6 0 12.77 0.18 11.99 0.56C11.2 0.94 10.54 1.47 10 2.16C9.45 1.47 8.79 0.94 8 0.56C7.22 0.18 6.39 0 5.51 0C4.76 -0.02 4.04 0.12 3.36 0.4C2.67 0.69 2.07 1.1 1.55 1.64C1.03 2.18 0.63 2.79 0.36 3.49C0.09 4.18 -0.03 4.91 0 5.66C0 6.51 0.17 7.32 0.5 8.1C0.84 8.87 1.31 9.56 1.92 10.15L10 18L18.1 10.15C18.7 9.56 19.17 8.87 19.5 8.1C19.83 7.32 19.99 6.51 19.99 5.66C20.02 4.91 19.9 4.18 19.63 3.49C19.36 2.79 18.96 2.18 18.44 1.64C17.92 1.1 17.32 0.69 16.63 0.4C15.95 0.12 15.23 -0.02 14.48 0Z" fill="#000000" fill-opacity="1.000000" fill-rule="nonzero"/>
</svg>
