<svg width="20.000000" height="18.000000" viewBox="0 0 20 18" fill="none" xmlns="http://www.w3.org/2000/svg" xmlns:xlink="http://www.w3.org/1999/xlink">
	<desc>
			Created with Pixso.
	</desc>
	<defs/>
	<path id="Vector" d="M17.77 0L2.22 0C1 0 0 0.9 0 2L0 16C0 17.09 1 18 2.22 18L17.77 18C19 18 20 17.09 20 16L20 2C20 0.9 19 0 17.77 0ZM17.77 16L2.22 16L2.22 2L17.77 2L17.77 16ZM6.18 3L3.33 3L3.33 5.58C4.91 5.58 6.18 4.41 6.18 3ZM10 3L8.09 3C8.09 5.36 5.96 7.29 3.33 7.29L3.33 9C7.02 9 10 6.3 10 3ZM12.37 8.86L9.04 12.73L6.66 10.15L3.33 14L16.66 14L12.37 8.86Z" fill="#C2C5CD" fill-opacity="1.000000" fill-rule="nonzero"/>
</svg>
