<svg width="10.000000" height="10.000000" viewBox="0 0 10 10" fill="none" xmlns="http://www.w3.org/2000/svg" xmlns:xlink="http://www.w3.org/1999/xlink">
	<desc>
			Created with Pixso.
	</desc>
	<defs/>
	<g opacity="0.800000">
		<path id="Vector" d="M5.91 5L9.8 8.89C10.06 9.14 10.06 9.55 9.8 9.8C9.55 10.06 9.14 10.06 8.89 9.8L5 5.91L1.1 9.8C0.85 10.06 0.44 10.06 0.19 9.8C-0.07 9.55 -0.07 9.14 0.19 8.89L4.08 5L0.19 1.1C-0.07 0.85 -0.07 0.44 0.19 0.18C0.31 0.06 0.48 0 0.64 0C0.81 0 0.97 0.06 1.1 0.18L5 4.08L8.89 0.18C9.02 0.06 9.18 0 9.35 0C9.51 0 9.68 0.06 9.8 0.18C10.06 0.44 10.06 0.85 9.8 1.1L5.91 5Z" fill="#343635" fill-opacity="1.000000" fill-rule="nonzero"/>
	</g>
</svg>
